HIERARCHY
ROOT __0
{
	OFFSET 0.0 0.0 0.0
	CHANNELS 0
	JOINT LEFT_ELBOW
	{
		OFFSET 0.000000 0.000000 0.000000
		CHANNELS 6 Xposition Yposition Zposition Xrotation Yrotation Zrotation
		End Site
		{
			OFFSET 0.000000 0.000000 1.000000
		}
	}
	JOINT LEFT_WRIST
	{
		OFFSET 0.000000 0.000000 0.000000
		CHANNELS 6 Xposition Yposition Zposition Xrotation Yrotation Zrotation
		End Site
		{
			OFFSET 0.000000 0.000000 1.000000
		}
	}
	JOINT RIGHT_ELBOW
	{
		OFFSET 0.000000 0.000000 0.000000
		CHANNELS 6 Xposition Yposition Zposition Xrotation Yrotation Zrotation
		End Site
		{
			OFFSET 0.000000 0.000000 1.000000
		}
	}
	JOINT RIGHT_WRIST
	{
		OFFSET 0.000000 0.000000 0.000000
		CHANNELS 6 Xposition Yposition Zposition Xrotation Yrotation Zrotation
		End Site
		{
			OFFSET 0.000000 0.000000 1.000000
		}
	}
	JOINT RIGHT_INDEX
	{
		OFFSET 0.000000 0.000000 0.000000
		CHANNELS 6 Xposition Yposition Zposition Xrotation Yrotation Zrotation
		End Site
		{
			OFFSET 0.000000 0.000000 1.000000
		}
	}
	JOINT LEFT_INDEX
	{
		OFFSET 0.000000 0.000000 0.000000
		CHANNELS 6 Xposition Yposition Zposition Xrotation Yrotation Zrotation
		End Site
		{
			OFFSET 0.000000 0.000000 1.000000
		}
	}
	JOINT RIGHT_SHOULDER
	{
		OFFSET 0.000000 0.000000 0.000000
		CHANNELS 6 Xposition Yposition Zposition Xrotation Yrotation Zrotation
		End Site
		{
			OFFSET 0.000000 0.000000 1.000000
		}
	}
	JOINT LEFT_SHOULDER
	{
		OFFSET 0.000000 0.000000 0.000000
		CHANNELS 6 Xposition Yposition Zposition Xrotation Yrotation Zrotation
		End Site
		{
			OFFSET 0.000000 0.000000 1.000000
		}
	}
	JOINT NECK
	{
		OFFSET 0.000000 0.000000 0.000000
		CHANNELS 6 Xposition Yposition Zposition Xrotation Yrotation Zrotation
		End Site
		{
			OFFSET 0.000000 0.000000 1.000000
		}
	}
	JOINT HEAD
	{
		OFFSET 0.000000 0.000000 0.000000
		CHANNELS 6 Xposition Yposition Zposition Xrotation Yrotation Zrotation
		End Site
		{
			OFFSET 0.000000 0.000000 1.000000
		}
	}
	JOINT HEAD_NECK
	{
		OFFSET 0.000000 0.000000 0.000000
		CHANNELS 6 Xposition Yposition Zposition Xrotation Yrotation Zrotation
		End Site
		{
			OFFSET 0.000000 0.000000 1.000000
		}
	}
	JOINT LTHUMB_MCP
	{
		OFFSET 0.000000 0.000000 0.000000
		CHANNELS 6 Xposition Yposition Zposition Xrotation Yrotation Zrotation
		End Site
		{
			OFFSET 0.000000 0.000000 1.000000
		}
	}
}
MOTION
Frames: 9
Frame Time: 0.041667
38.214176 18.555868 -15.627847 -68.527438 6.282054 4.281799 39.732853 31.393970 -10.577884 -128.412993 -5.165389 -10.664559 22.921131 17.850855 -13.824129 -65.575082 -9.744286 -6.285627 20.484283 30.770992 -7.956520 -128.534297 2.778994 5.762129 21.138285 41.310257 -16.350134 -155.049652 8.118133 35.567315 38.583954 41.352402 -18.474514 -139.841088 -5.008018 -13.644157 38.214176 18.555868 -15.627847 21.348863 -82.782869 18.864364 22.921131 17.850855 -13.824129 21.348870 97.217129 -24.143330 30.901905 12.493086 0.136848 104.815468 2.559744 -3.324444 31.022509 9.885052 -0.552978 89.557645 4.242392 -4.209794 30.901905 12.493086 0.136848 92.626080 3.449752 -3.611500 0.000000 0.000000 0.000000 -0.000000 0.000000 -0.000000 
38.228096 18.589714 -16.032492 -68.506886 6.014134 4.097424 39.688736 31.489782 -10.952811 -127.551406 -5.235787 -10.606158 22.978159 17.823126 -13.876976 -63.761039 -9.936324 -6.189640 20.422901 30.906475 -7.428116 -127.449882 2.339543 4.736857 20.959253 41.328640 -15.410851 -154.718715 9.291606 39.835053 38.539291 41.434326 -18.597713 -140.307959 -5.322704 -14.677030 38.228096 18.589714 -16.032492 19.577429 -81.468195 16.901853 22.978159 17.823126 -13.876976 19.577434 98.531804 -22.657337 30.926138 12.474709 0.050929 103.611279 2.645031 -3.361548 31.051565 9.835928 -0.588009 88.299490 3.870215 -3.757103 30.926138 12.474709 0.050929 91.420716 3.357948 -3.442212 0.000000 0.000000 0.000000 -0.000000 0.000000 -0.000000 
38.303761 18.573839 -14.682236 -69.440279 6.614958 4.586504 39.921066 31.631643 -9.784606 -129.326695 -5.641180 -11.881151 22.978722 17.764853 -12.941169 -62.803856 -8.942598 -5.465959 20.593594 31.246532 -6.013674 -122.816336 2.239122 4.106996 21.077032 41.637531 -12.714410 -151.623246 8.383494 32.332575 38.673519 41.401512 -17.788755 -139.135939 -3.196942 -8.567859 38.303761 18.573839 -14.682236 24.921940 -82.859497 22.071087 22.978722 17.764853 -12.941169 24.921923 97.140508 -28.114585 30.921267 12.468080 0.073745 103.923350 2.675769 -3.419716 31.048071 9.834534 -0.579131 88.616848 4.168978 -4.069618 30.921267 12.468080 0.073745 91.733286 3.558931 -3.668183 0.000000 0.000000 0.000000 -0.000000 0.000000 -0.000000 
38.281181 18.595522 -15.736574 -67.529110 6.430433 4.301538 39.839245 31.370066 -10.452787 -128.181518 -4.967718 -10.205752 22.972000 17.807564 -15.031635 -65.174027 -10.108497 -6.471351 20.416990 30.814589 -9.014389 -128.861750 3.112476 6.499853 21.147364 41.273418 -17.442078 -152.976758 8.983975 36.209063 38.729076 41.409706 -18.347960 -139.564110 -4.039578 -10.939838 38.281181 18.595522 -15.736574 48.182897 -86.049366 45.304232 22.972000 17.807564 -15.031635 48.182914 93.950639 -51.197032 30.939878 12.482958 0.038582 103.207874 2.680319 -3.381833 31.067350 9.832073 -0.583562 88.218566 3.919410 -3.799494 30.939878 12.482958 0.038582 91.251525 3.385185 -3.459902 0.000000 0.000000 0.000000 -0.000000 0.000000 -0.000000 
38.315910 18.701441 -15.440908 -68.762226 6.218416 4.257051 39.834919 31.695618 -10.390941 -128.316209 -5.094738 -10.496813 23.022358 17.708515 -14.074762 -64.381466 -10.303410 -6.496644 20.405424 30.688549 -7.850610 -127.848847 3.184194 6.501459 21.140339 41.119827 -15.956192 -152.961854 9.503256 38.142778 38.713066 41.568382 -18.192516 -140.886285 -5.322238 -14.908363 38.315910 18.701441 -15.440908 36.009959 -83.698381 32.460566 23.022358 17.708515 -14.074762 36.009932 96.301624 -39.889906 30.939699 12.479958 0.050046 103.390670 2.952338 -3.737183 31.079962 9.834240 -0.579797 88.367505 4.121635 -4.005937 30.939699 12.479958 0.050046 91.422137 3.610284 -3.700963 0.000000 0.000000 0.000000 -0.000000 0.000000 -0.000000 
38.330528 18.572783 -16.450203 -67.991699 6.422608 4.333901 39.907089 31.557665 -11.201781 -126.921143 -5.516966 -11.020714 22.966789 17.852949 -15.165633 -65.218819 -9.564243 -6.127205 20.475237 31.278343 -8.967582 -126.835944 2.624545 5.242462 21.083986 41.907188 -16.929377 -153.670172 8.491390 35.217463 38.695156 41.588898 -18.739231 -137.966666 -4.107436 -10.664623 38.330528 18.572783 -16.450203 29.264932 -84.525319 26.694276 22.966789 17.852949 -15.165633 29.264946 95.474679 -32.059296 30.952280 12.482405 0.042767 103.384250 3.145153 -3.980727 31.102507 9.822706 -0.590089 88.059778 4.088121 -3.952086 30.952280 12.482405 0.042767 91.258000 3.675135 -3.756668 0.000000 0.000000 0.000000 -0.000000 0.000000 -0.000000 
38.331242 18.681789 -16.831877 -68.630205 5.661026 3.865556 39.727489 31.798923 -11.699304 -128.717606 -5.379539 -11.179909 23.003035 17.802044 -15.326133 -65.449543 -10.027100 -6.453074 20.453163 30.919460 -9.334226 -128.472047 3.144523 6.509833 21.198288 41.538208 -17.772303 -154.410633 8.529518 36.357292 38.569416 41.394302 -19.391491 -138.887580 -3.314617 -8.823886 38.331242 18.681789 -16.831877 30.296011 -83.509294 27.171922 23.003035 17.802044 -15.326133 30.296021 96.490704 -33.741585 30.965105 12.498187 0.046429 103.435538 3.028577 -3.836749 31.110289 9.829207 -0.591161 88.109789 4.062135 -3.930391 30.965105 12.498187 0.046429 91.328181 3.636315 -3.721542 0.000000 0.000000 0.000000 -0.000000 0.000000 -0.000000 
38.295502 18.568245 -15.615217 -67.880319 6.637034 4.469392 39.857147 31.001379 -10.561670 -127.544111 -5.955791 -12.055107 23.037764 17.715446 -14.221038 -60.100610 -9.371721 -5.429795 20.597977 30.530716 -6.852114 -120.189077 4.095119 7.113940 21.444281 40.748154 -12.796197 -150.264080 9.198325 33.714685 38.533924 41.058136 -18.290802 -138.343282 -5.003682 -13.103627 38.295502 18.568245 -15.615217 31.453503 -83.886123 28.400070 23.037764 17.715446 -14.221038 31.453509 96.113876 -34.798270 30.963728 12.488489 0.084312 104.191715 3.159402 -4.057158 31.114132 9.846836 -0.583723 88.627073 4.120495 -4.023005 30.963728 12.488489 0.084312 91.859440 3.685653 -3.807160 0.000000 0.000000 0.000000 -0.000000 0.000000 -0.000000 
38.260685 18.640102 -15.663037 -70.231113 5.635713 3.964748 39.654312 31.930439 -10.886372 -124.744225 -3.020951 -5.768163 22.947546 17.802732 -14.096494 -65.064437 -9.725755 -6.212526 20.463545 30.944529 -7.986356 -127.223857 3.018670 6.079946 21.157122 41.417366 -15.942547 -152.939547 8.746994 35.263184 38.935516 43.122173 -18.648684 -146.632933 -7.282556 -23.976051 38.260685 18.640102 -15.663037 28.126000 -83.383346 25.155495 22.947546 17.802732 -14.096494 28.126009 96.616653 -31.415486 30.976223 12.499661 0.067339 103.767615 3.003182 -3.827325 31.119617 9.844965 -0.583126 88.444359 3.936915 -3.831529 30.976223 12.499661 0.067339 91.630949 3.556546 -3.659185 0.000000 0.000000 0.000000 -0.000000 0.000000 -0.000000 
